<svg xmlns="http://www.w3.org/2000/svg" viewBox="0 0 512.001 512.001"><path d="M367.393 471.414c-.117-.34-11.828-34.602-23.265-86.831a7.48 7.48 0 0 0-8.91-5.708 7.482 7.482 0 0 0-5.708 8.91c10.296 47.019 20.593 79.074 23.147 86.761.02.201.046.402.082.602-1.755 2.432-12.085 8.879-43.255 14.33-27.872 4.874-64.155 7.558-102.165 7.558s-74.293-2.684-102.166-7.558c-31.167-5.45-41.499-11.897-43.254-14.329a7.77 7.77 0 0 0 .081-.605c2.557-7.696 12.865-39.787 23.167-86.853a7.482 7.482 0 0 0-5.71-8.909 7.482 7.482 0 0 0-8.909 5.71c-11.427 52.203-23.168 86.583-23.285 86.924a7.48 7.48 0 0 0-.377 3.094c-.02.291-.03.583-.03.873 0 12.458 16.172 21.34 50.895 27.952 29.345 5.588 68.264 8.666 109.586 8.666s80.241-3.078 109.586-8.666c34.723-6.612 50.895-15.494 50.895-27.952 0-.29-.01-.581-.029-.871a7.46 7.46 0 0 0-.376-3.098zM341.481 160.336c-35.925-8.66-83.572-13.429-134.162-13.429-50.591 0-98.237 4.769-134.162 13.429-40.194 9.689-60.574 22.875-60.574 39.192s20.38 29.503 60.574 39.191a360.944 360.944 0 0 0 17.918 3.818 883.158 883.158 0 0 1-2.548 30.522c-.082.804-.166 1.609-.25 2.414a868.769 868.769 0 0 1-.701 6.466c-2.509 22.405-5.903 45.285-10.168 68.428a7.483 7.483 0 1 0 14.717 2.712 1003.744 1003.744 0 0 0 9.1-59.2c32.254 4.462 68.74 6.815 106.094 6.815 37.355 0 73.841-2.353 106.094-6.815a1004.113 1004.113 0 0 0 9.094 59.172 7.482 7.482 0 1 0 14.717-2.711c-4.266-23.152-7.659-46.039-10.168-68.448a860.291 860.291 0 0 1-.945-8.831 883.476 883.476 0 0 1-2.548-30.524 360.944 360.944 0 0 0 17.918-3.818c40.194-9.689 60.574-22.875 60.574-39.191 0-16.317-20.38-29.502-60.574-39.192zM207.319 285.731c-36.802 0-72.703-2.315-104.357-6.712.25-2.349.486-4.7.718-7.05l.077-.753a890.084 890.084 0 0 0 1.914-22.647c.084-1.165.186-2.341.265-3.503 15.076 2.312 31.361 4.082 48.434 5.277l.041.003.029.002.026.002c1.333.093 2.679.177 4.022.263 2.713.174 5.439.338 8.185.482l.338.019.014.001.728.037h.01a751.071 751.071 0 0 0 5.818.275l.401.018.015.001c2.031.087 4.071.165 6.118.236h.004c.582.02 1.167.036 1.75.055a792.921 792.921 0 0 0 4.446.133l1.263.034h.011c1.925.048 3.857.089 5.794.123 1.94.034 3.888.058 5.838.078l.454.006h.001c2.541.024 5.088.04 7.644.04s5.102-.015 7.643-.04h.002c1.723-.016 3.442-.038 5.156-.065.311-.005.623-.008.933-.014h.001c2.004-.035 4.001-.078 5.993-.127h.007l1.267-.034.025-.001c1.709-.045 3.413-.096 5.112-.153h.012l1.049-.034h.005c2.046-.071 4.085-.149 6.115-.236l.014-.001.402-.018.059-.003c1.927-.083 3.845-.175 5.756-.273l.021-.001.72-.037.019-.001c.141-.007.279-.016.419-.024 2.951-.156 5.879-.333 8.792-.523 1.109-.072 2.223-.14 3.325-.217l.029-.002.035-.002.043-.003c17.072-1.194 33.354-2.965 48.429-5.276.073 1.078.168 2.17.246 3.251a897.195 897.195 0 0 0 1.936 22.932l.062.61c.235 2.386.475 4.774.729 7.16-31.654 4.397-67.556 6.712-104.357 6.712zm168.833-75.133c-8.695 4.956-21.898 9.65-38.179 13.574-7.322 1.765-15.162 3.361-23.43 4.784-.049.007-.098.009-.147.017l-.198.033c-1.693.289-3.407.569-5.133.844-.554.088-1.112.174-1.669.26-1.318.205-2.644.405-3.979.601-.558.082-1.115.165-1.676.245-1.824.262-3.66.518-5.516.763l-.381.049c-1.746.23-3.508.451-5.28.667-.607.074-1.219.145-1.829.218-1.363.161-2.734.318-4.112.471-.618.068-1.234.138-1.854.205-1.9.205-3.809.404-5.735.593-.253.025-.511.047-.765.072-1.707.165-3.424.323-5.149.476-.691.061-1.386.12-2.08.179a638.42 638.42 0 0 1-4.108.336c-.691.054-1.38.11-2.074.162-1.926.145-3.86.285-5.806.416-.42.028-.843.053-1.264.08-1.644.107-3.294.209-4.951.305-.76.044-1.523.085-2.286.127-1.36.074-2.725.145-4.094.212-.757.037-1.514.075-2.274.11a722.41 722.41 0 0 1-6.003.252l-.345.013c-2.211.082-4.431.154-6.659.216l-.819.022a781.11 781.11 0 0 1-6.178.143l-.603.012-.527.007c-1.949.034-3.903.061-5.863.081-.467.005-.935.008-1.403.012-2.15.018-4.305.03-6.466.03a772.082 772.082 0 0 1-7.869-.042 782.405 782.405 0 0 1-6.159-.085l-.231-.003c-.201-.004-.401-.009-.602-.012a736.683 736.683 0 0 1-6.181-.143l-.816-.022c-2.229-.063-4.45-.135-6.662-.217l-.335-.013a727.461 727.461 0 0 1-6.024-.253c-.749-.034-1.494-.072-2.241-.108a677.206 677.206 0 0 1-6.399-.339 696.625 696.625 0 0 1-4.952-.305c-.426-.028-.855-.053-1.28-.081-1.94-.13-3.868-.269-5.788-.414-.697-.053-1.389-.108-2.083-.163-1.373-.108-2.742-.22-4.104-.336-.692-.059-1.384-.117-2.073-.178a611.915 611.915 0 0 1-5.188-.48l-.727-.068a597.171 597.171 0 0 1-5.74-.593c-.62-.067-1.235-.136-1.852-.204a594.628 594.628 0 0 1-4.123-.472c-.605-.072-1.211-.143-1.814-.216a551.992 551.992 0 0 1-5.306-.67l-.359-.046c-1.86-.246-3.7-.503-5.528-.765-.552-.079-1.1-.161-1.65-.241a475.26 475.26 0 0 1-4.019-.607c-.543-.084-1.087-.168-1.627-.254a471.211 471.211 0 0 1-5.288-.869l-.061-.01c-.048-.008-.097-.01-.145-.017-8.268-1.423-16.109-3.019-23.431-4.784-33.746-8.135-49.116-18.477-49.116-24.644 0-3.028 4.089-7.166 10.938-11.069 8.696-4.956 21.898-9.65 38.178-13.575 34.81-8.391 81.211-13.012 130.655-13.012s95.845 4.621 130.655 13.012c33.747 8.135 49.117 18.478 49.117 24.644.003 3.025-4.086 7.163-10.935 11.067z"/><path d="M338.575 189.157c-5.802-1.495-12.128-2.901-18.801-4.18-31.654-6.067-71.591-9.408-112.455-9.408s-80.801 3.341-112.454 9.408c-6.672 1.278-12.998 2.685-18.801 4.18-4.812 1.239-8.046 5.407-8.046 10.371s3.234 9.132 8.045 10.371c5.802 1.495 12.128 2.901 18.802 4.181 31.655 6.067 71.592 9.408 112.454 9.408 40.861 0 80.798-3.341 112.455-9.408 6.677-1.28 13.002-2.687 18.8-4.18 4.813-1.239 8.047-5.407 8.047-10.372-.001-4.964-3.234-9.132-8.046-10.371zm-131.256 19.365c-39.613 0-78.237-3.193-108.871-8.994 30.632-5.801 69.255-8.994 108.871-8.994 39.615 0 78.239 3.193 108.871 8.994-30.635 5.802-69.258 8.994-108.871 8.994zM498.545 31.575l-5.082-17.107c-1.553-5.227-5.033-9.585-9.549-11.957-3.903-2.05-8.263-2.461-12.277-1.155L214.84 84.924h-.001l-56.757 18.47c-8.75 2.847-13.309 12.808-10.376 22.681l.227.763c2.489 8.381 9.54 13.869 17.052 13.869 1.334 0 2.683-.173 4.022-.534l318.41-85.698c4.075-1.097 7.505-3.821 9.656-7.67 2.488-4.453 3.025-10.004 1.472-15.23zm-333.426 94.148c-.454.11-2.135-.771-2.841-3.149l-.227-.763c-.705-2.376.215-4.041.662-4.186l49.456-16.094 3.171 10.675-50.221 13.517zM484.01 39.506c-.125.222-.316.475-.481.52l-253.733 68.291-3.392-11.417 249.865-81.312a.31.31 0 0 1 .1-.014c.168 0 .401.09.586.187.734.385 1.686 1.368 2.163 2.971L484.2 35.84c.476 1.599.214 2.943-.19 3.666zM111.189 84.558h-8.979v-8.979a7.482 7.482 0 0 0-14.964 0v8.979h-8.979a7.482 7.482 0 0 0 0 14.964h8.979v8.979a7.482 7.482 0 0 0 14.964 0v-8.979h8.979a7.482 7.482 0 0 0 0-14.964zM393.24 114.349h-8.979v-8.979c0-4.132-3.349-7.482-7.482-7.482s-7.482 3.35-7.482 7.482v8.979h-8.979a7.482 7.482 0 1 0 0 14.964h8.979v8.979a7.482 7.482 0 0 0 14.964 0v-8.979h8.979a7.482 7.482 0 1 0 0-14.964zM284.096 16.462h-8.979v-8.98a7.482 7.482 0 0 0-14.964 0v8.979h-8.979a7.482 7.482 0 0 0 0 14.965h8.979v8.979a7.482 7.482 0 0 0 14.964 0v-8.979h8.979a7.482 7.482 0 1 0 0-14.964z"/></svg>