<svg xmlns="http://www.w3.org/2000/svg" viewBox="0 0 512 512"><path d="M315.936 13.588a7.497 7.497 0 0 0-6.307-1.47L71.932 64.835a7.486 7.486 0 0 0-5.865 7.309v126.293a7.486 7.486 0 1 0 14.972 0v-36.711l12.638-2.803v190.852c0 7.587-7.714 35.919-45.45 35.919-18.337 0-33.256-10.991-33.256-24.5s14.918-24.5 33.256-24.5c6.833 0 14.814 1.738 22.473 4.894a7.487 7.487 0 0 0 10.339-6.922V232.043a7.486 7.486 0 1 0-14.972 0v92.2c-6.141-1.645-12.248-2.52-17.838-2.52C21.635 321.723 0 339.43 0 361.195c0 21.766 21.635 39.473 48.229 39.473 25.221 0 39.798-10.705 47.585-19.685 9.476-10.927 12.838-23.641 12.838-31.207V155.603l167.5-37.148v151.02c-6.142-1.646-12.248-2.521-17.838-2.521-26.594 0-48.229 17.707-48.229 39.473 0 21.765 21.636 39.473 48.229 39.473 41.219 0 60.423-31.098 60.423-52.115V103.014 19.427c0-2.27-1.03-4.418-2.801-5.839zm-12.174 280.196c.001 6.116-2.829 15.558-10.769 23.718-5.959 6.124-16.813 13.424-34.68 13.424-18.337 0-33.256-10.991-33.256-24.5s14.919-24.5 33.256-24.5c6.831 0 14.812 1.738 22.472 4.895a7.487 7.487 0 0 0 10.339-6.922V115.134l12.638-2.803v181.453zm.001-196.79L81.04 146.389V78.151l222.723-49.395v68.238z"/><path d="M505.697 253.753c-7.498-32.27-21.028-52.65-40.215-60.576-17.842-7.37-38.89-27.934-60.888-59.48a21.296 21.296 0 0 0-2.783-4.043 453.707 453.707 0 0 1-19.284-31.045 9.642 9.642 0 0 0-10.841-4.575 9.648 9.648 0 0 0-7.189 9.324v164.288a7.486 7.486 0 1 0 14.972 0V122.76a459.624 459.624 0 0 0 10.247 15.735c.21.309.443.6.697.874.417.45.766.957 1.037 1.507.165.334.354.655.567.961 24.082 34.627 46.875 56.556 67.747 65.177 18.011 7.441 26.988 31.366 31.347 50.126 2.952 12.705 4.45 25.64 5.199 36.28-16.431-21.024-47.225-52.486-94.107-69.919a7.487 7.487 0 0 0-10.096 7.017V435.3c0 17.551-20.21 49.784-53.232 49.784-21.64 0-39.245-13.1-39.245-29.202s17.605-29.202 39.245-29.202c9.15 0 20.052 2.671 29.909 7.33a7.488 7.488 0 0 0 10.685-6.769V302.915a7.486 7.486 0 1 0-14.972 0v113.283c-8.715-2.896-17.653-4.489-25.621-4.489-29.896 0-54.218 19.817-54.218 44.175 0 24.358 24.322 44.175 54.218 44.175 19.226 0 37.163-8.376 50.507-23.586 10.751-12.253 17.698-28.414 17.698-41.171V241.63c52.323 23.02 80.732 64.15 88.516 76.81 2.095 3.41 6.092 4.972 9.943 3.888 3.851-1.084 6.447-4.501 6.459-8.503.027-9.791-.534-35.247-6.302-60.072zM504.556 435.172c-2.452-3.308-7.133-4-10.455-1.567-.2.146-20.479 14.672-65.832 18.738a7.486 7.486 0 1 0 1.336 14.913c50.081-4.489 72.52-20.951 73.45-21.65 3.293-2.472 3.955-7.127 1.501-10.434zM257.454 436.317c-88.235-17.468-157.928-24.206-207.148-20.03-19.579 1.662-33.541 5.049-42.189 8.47-4.648 1.838-6.218 7.623-3.094 11.525l.138.172a7.375 7.375 0 0 0 8.503 2.251c6.166-2.472 18.858-6.187 41.864-7.806 59.432-4.178 141.03 8.625 199.019 20.106a7.489 7.489 0 0 0 8.798-5.89 7.488 7.488 0 0 0-5.891-8.798z"/><path d="M497.726 367.116c-2.347-2.374-6.001-2.932-8.907-1.289-8.235 4.657-25.597 10.942-54.018 13.454-3.974.351-7.203 3.654-7.11 7.642a7.487 7.487 0 0 0 8.137 7.299c32.882-2.871 51.128-10.184 60.294-15.38 4.267-2.419 5.053-8.238 1.604-11.726zM337.871 376.585c-21.445-2.573-50.439-7.535-91.247-15.615-44.205-8.75-81.766-14.875-108.623-17.712-4.108-.439-7.797 2.547-8.231 6.659a7.487 7.487 0 0 0 6.659 8.232c26.418 2.789 63.517 8.844 107.287 17.509 41.189 8.155 70.54 13.173 92.371 15.793a7.49 7.49 0 0 0 8.325-6.541 7.487 7.487 0 0 0-6.541-8.325z"/></svg>