<svg xmlns="http://www.w3.org/2000/svg" viewBox="0 0 511.999 511.999"><path d="M375.981 213.187a7.513 7.513 0 0 0-11.561-9.596l-29.404 35.428a16.74 16.74 0 0 0 7.466 26.527l19.456 6.65a7.509 7.509 0 0 0 9.538-4.679 7.512 7.512 0 0 0-4.678-9.538l-19.457-6.65a1.651 1.651 0 0 1-1.095-1.157 1.648 1.648 0 0 1 .332-1.559l29.403-35.426zM352.825 170.122c-4.118-8.395-14.329-18.148-39.711-16.96-13.628.641-25.656 4.157-26.161 4.306a7.512 7.512 0 0 0 4.259 14.407c.107-.031 10.774-3.15 22.609-3.707 8.645-.407 19.482.488 24.279 6.602a7.473 7.473 0 0 0 .752 4.585 7.506 7.506 0 0 0 10.121 3.226c4.457-2.303 6.149-7.775 3.852-12.459zM463.265 217.723c-.308-.427-7.668-10.57-18.054-19.417-19.324-16.463-33.39-15.009-41.785-10.89-4.682 2.297-6.695 7.659-4.581 12.208a7.511 7.511 0 0 0 13.382.478c13.535-3.434 32.848 18.113 38.856 26.414a7.5 7.5 0 0 0 6.095 3.113c1.523 0 3.06-.461 4.388-1.42a7.51 7.51 0 0 0 1.699-10.486zM179.959 291.438c-1.191-3.974-5.38-6.224-9.355-5.036l-19.692 5.91a1.655 1.655 0 0 1-1.565-.304 1.653 1.653 0 0 1-.638-1.46l3.307-45.922a7.512 7.512 0 0 0-6.952-8.032 7.502 7.502 0 0 0-8.032 6.953l-3.307 45.922a16.735 16.735 0 0 0 16.696 17.939c1.609 0 3.23-.232 4.81-.706l19.693-5.91a7.512 7.512 0 0 0 5.035-9.354zM113.952 236.646a9.152 9.152 0 0 0-5.739-5.201c-28.456-8.815-60.193 15.398-61.531 16.433a7.506 7.506 0 0 0-1.344 10.526c2.531 3.281 7.248 3.888 10.532 1.36.069-.053 7.067-5.403 16.751-9.739 6.541-2.929 15.449-5.874 24.063-5.444l-3.477 6.794a7.512 7.512 0 0 0 3.265 10.109 7.513 7.513 0 0 0 10.11-3.264l7.084-13.842a9.137 9.137 0 0 0 .286-7.732zM224.3 194.573c-1.688-.128-41.514-2.863-60.411 20.164a9.153 9.153 0 0 0-1.926 7.505 9.14 9.14 0 0 0 4.496 6.294l13.533 7.653a7.51 7.51 0 0 0 10.236-2.841 7.511 7.511 0 0 0-2.84-10.236l-6.663-3.768c15.598-11.548 42.011-9.82 42.446-9.789 4.138.303 7.738-2.79 8.051-6.924a7.51 7.51 0 0 0-6.922-8.058z"/><path d="M377.311 308.81c-6.868-14.001-18.778-24.489-33.534-29.532-14.759-5.044-30.594-4.038-44.595 2.831a58.31 58.31 0 0 0-17.817 13.477l.554-2.537c6.707-26.772 1.976-55.419-12.988-78.614a84.7 84.7 0 0 1-12.192-30.771l-3.735-20.349c-6.004-32.7-34.491-56.617-67.736-56.869-55.255-.399-108.659 15.618-154.526 46.375-27.615 18.515-38.225 54.166-25.23 84.768l8.087 19.043a84.682 84.682 0 0 1 6.765 32.4c.282 27.602 12.106 54.119 32.447 72.775l63.333 61.757a72.224 72.224 0 0 0 71.157 17.459l25.971-7.794c25.116-7.538 44.192-28.136 49.784-53.756l11.818-54.146a7.495 7.495 0 0 0 3.632.05c31.498-7.527 64.391 2.865 85.847 27.122l3.055 3.453a7.512 7.512 0 0 0 12.734-2.548c5.043-14.757 4.039-30.594-2.831-44.594zM267.32 289.496c-.02.077-.038.155-.055.233l-18.888 86.54a57.205 57.205 0 0 1-39.424 42.57l-25.972 7.794a57.2 57.2 0 0 1-56.349-13.826l-63.418-61.839a6.643 6.643 0 0 0-.174-.164c-17.335-15.859-27.414-38.431-27.653-61.924a99.627 99.627 0 0 0-7.96-38.12l-8.087-19.043c-10.182-23.977-1.868-51.91 19.767-66.418 42.801-28.7 92.569-43.837 144.055-43.837.662 0 1.327.002 1.99.008 26.048.197 48.368 18.937 53.072 44.558l3.735 20.349a99.668 99.668 0 0 0 14.345 36.203c12.739 19.742 16.753 44.133 11.016 66.916zm31.607 18.445c-2.857-.001-5.722.119-8.59.361 4.034-5.328 9.288-9.677 15.462-12.706 10.398-5.1 22.162-5.848 33.119-2.102 10.96 3.745 19.805 11.534 24.905 21.932 3.047 6.21 4.54 12.909 4.451 19.631a102.229 102.229 0 0 0-69.347-27.116z"/><path d="M223.728 312.126a7.515 7.515 0 0 0-5.444-5.145 7.504 7.504 0 0 0-7.185 2.119l-3.183 3.335c-22.356 23.431-55.621 32.574-86.811 23.861a7.506 7.506 0 0 0-7.383 1.975 7.51 7.51 0 0 0-1.833 7.419c7.581 25.26 30.835 41.607 55.949 41.607 5.542 0 11.179-.797 16.753-2.47 30.833-9.253 48.39-41.867 39.137-72.701zm-43.456 58.312c-11.092 3.33-22.817 2.14-33.016-3.35-6.055-3.26-11.142-7.803-14.972-13.28a102.25 102.25 0 0 0 78.873-23.779c-.484 18.21-12.511 34.894-30.885 40.409zM483.411 120.137c-44.675-32.466-97.466-50.507-152.665-52.174-33.238-1.007-62.602 21.822-69.835 54.273l-4.083 18.318a7.512 7.512 0 1 0 14.663 3.268l4.083-18.317c5.667-25.426 28.649-43.321 54.717-42.524 52.17 1.575 102.064 18.627 144.287 49.311 21.072 15.315 28.325 43.541 17.246 67.117l-8.8 18.724a99.648 99.648 0 0 0-9.393 37.792c-1.125 23.468-12.048 45.642-29.969 60.836a5.466 5.466 0 0 0-.18.157l-65.708 59.402a57.2 57.2 0 0 1-56.831 11.689l-25.661-8.77a55.987 55.987 0 0 1-2.415-.886 7.512 7.512 0 1 0-5.489 13.985c1.009.396 2.036.773 3.048 1.118l25.658 8.769a72.23 72.23 0 0 0 71.765-14.761l65.622-59.323c21.03-17.874 33.845-43.927 35.167-71.498a84.714 84.714 0 0 1 7.984-32.121l8.8-18.724c14.14-30.09 4.883-66.116-22.011-85.661z"/></svg>